<svg width="1311" height="860" viewBox="0 0 1311 860" fill="none" xmlns="http://www.w3.org/2000/svg">
    <path d="M1077.37 393.833C1105.54 393.833 1128.37 373.181 1128.37 347.704C1128.37 322.228 1105.54 301.576 1077.37 301.576C1049.21 301.576 1026.37 322.228 1026.37 347.704C1026.37 373.181 1049.21 393.833 1077.37 393.833Z" fill="#2F2E41" />
    <path d="M949.605 587.671C948.475 585.728 947.83 583.584 947.714 581.392C947.599 579.199 948.017 577.01 948.938 574.979C949.86 572.948 951.262 571.124 953.047 569.636C954.832 568.149 956.955 567.033 959.269 566.368L1023.89 442.716L1053.46 461.465L980.635 577.115C981.613 580.704 981.101 584.493 979.197 587.763C977.293 591.033 974.129 593.558 970.304 594.859C966.479 596.16 962.259 596.147 958.444 594.822C954.629 593.497 951.484 590.953 949.605 587.671Z" fill="#FFB8B8" />
    <path d="M1004.98 459.133C1004.67 458.206 1004.59 457.23 1004.74 456.272C1004.89 455.314 1005.26 454.395 1005.84 453.58L1025.93 425.089C1028.16 420.569 1032.29 417.036 1037.4 415.262C1042.51 413.489 1048.18 413.62 1053.19 415.627C1058.19 417.635 1062.11 421.355 1064.08 425.971C1066.06 430.588 1065.93 435.725 1063.72 440.255L1053.6 472.899C1053.31 473.831 1052.81 474.695 1052.12 475.433C1051.42 476.172 1050.56 476.766 1049.6 477.177C1048.63 477.588 1047.57 477.805 1046.5 477.814C1045.43 477.822 1044.37 477.622 1043.4 477.227L1009.07 463.346C1008.1 462.951 1007.23 462.37 1006.52 461.643C1005.81 460.916 1005.29 460.06 1004.98 459.133Z" fill="#F50057" />
    <path d="M1167.59 599.93C1165.23 599.433 1163.01 598.474 1161.1 597.119C1159.19 595.764 1157.63 594.047 1156.53 592.089C1155.44 590.131 1154.83 587.979 1154.75 585.784C1154.67 583.59 1155.13 581.407 1156.08 579.389L1094.88 454.321L1129.89 446.345L1179.04 571.791C1182.69 573.468 1185.52 576.295 1187.01 579.736C1188.5 583.177 1188.55 586.994 1187.14 590.462C1185.72 593.931 1182.95 596.81 1179.35 598.555C1175.75 600.3 1171.56 600.789 1167.59 599.93V599.93Z" fill="#FFB8B8" />
    <path d="M1184.27 826.625L1166.47 832.489L1132.99 773.168L1159.27 764.514L1184.27 826.625Z" fill="#FFB8B8" />
    <path d="M1151.9 832.076L1186.24 820.769L1194.11 840.322L1138.15 858.749C1137.12 856.181 1136.66 853.455 1136.79 850.724C1136.92 847.994 1137.64 845.314 1138.92 842.837C1140.2 840.361 1142 838.136 1144.23 836.289C1146.45 834.443 1149.06 833.011 1151.9 832.076Z" fill="#2F2E41" />
    <path d="M1135.67 789.102L1067.84 681.745C1067.19 680.707 1066.85 679.529 1066.86 678.333C1066.88 677.137 1067.24 675.966 1067.92 674.941L1098.47 628.9C1099.19 627.808 1100.24 626.924 1101.5 626.35C1102.76 625.777 1104.17 625.538 1105.57 625.662C1106.97 625.785 1108.31 626.265 1109.42 627.046C1110.53 627.828 1111.37 628.878 1111.85 630.076L1169.6 774.708C1170.23 776.283 1170.19 778.015 1169.49 779.565C1168.78 781.114 1167.46 782.369 1165.78 783.081L1145.32 791.847C1144.33 792.269 1143.25 792.488 1142.16 792.488C1140.85 792.49 1139.55 792.178 1138.41 791.583C1137.27 790.989 1136.33 790.133 1135.67 789.102Z" fill="#2F2E41" />
    <path d="M1072.73 398.106C1093.69 398.106 1110.69 382.734 1110.69 363.773C1110.69 344.812 1093.69 329.441 1072.73 329.441C1051.77 329.441 1034.77 344.812 1034.77 363.773C1034.77 382.734 1051.77 398.106 1072.73 398.106Z" fill="#FFB8B8" />
    <path d="M1018.74 519.285C988.845 459.334 1018.98 425.827 1033.33 414.205C1037.46 410.852 1042.81 409 1048.36 409.003H1101.84C1105.68 409.003 1109.45 409.89 1112.81 411.582C1116.16 413.273 1118.98 415.711 1121 418.666C1123.02 421.62 1124.17 424.992 1124.34 428.462C1124.51 431.931 1123.7 435.383 1121.98 438.49L1086.24 503.152L1019.03 519.87L1018.74 519.285Z" fill="#F50057" />
    <path d="M1096.97 476.735C1095.99 476.34 1095.12 475.759 1094.41 475.032C1093.71 474.305 1093.18 473.448 1092.88 472.521L1082.18 440.143C1079.86 435.66 1079.6 430.529 1081.46 425.875C1083.31 421.22 1087.14 417.421 1092.08 415.31C1097.03 413.198 1102.7 412.948 1107.86 414.612C1113.01 416.276 1117.22 419.72 1119.57 424.189L1140.27 452.457C1140.86 453.264 1141.25 454.176 1141.42 455.132C1141.58 456.088 1141.52 457.065 1141.23 457.997C1140.94 458.928 1140.43 459.792 1139.74 460.53C1139.05 461.268 1138.19 461.862 1137.22 462.272L1103.17 476.689C1102.2 477.1 1101.14 477.316 1100.07 477.324C1099 477.332 1097.94 477.132 1096.97 476.735Z" fill="#F50057" />
    <path d="M1061.97 842.836L1043.02 842.835L1034.01 776.734L1061.97 776.735L1061.97 842.836Z" fill="#FFB8B8" />
    <path d="M1029.49 837.939H1066.03V858.748H1006.48C1006.48 856.015 1007.07 853.309 1008.23 850.785C1009.39 848.26 1011.08 845.966 1013.22 844.033C1015.35 842.101 1017.89 840.568 1020.68 839.523C1023.47 838.477 1026.46 837.939 1029.49 837.939Z" fill="#2F2E41" />
    <path d="M1053.94 817.602L1023.6 814.437C1022.62 814.334 1021.67 814.056 1020.81 813.618C1019.95 813.18 1019.19 812.591 1018.58 811.886C1017.98 811.181 1017.53 810.373 1017.27 809.51C1017.01 808.647 1016.95 807.747 1017.08 806.86L1044.15 622.485C1044.25 621.843 1044.21 621.19 1044.04 620.561L1016.83 519.015C1016.57 518.078 1016.54 517.102 1016.74 516.155C1016.94 515.207 1017.37 514.31 1017.99 513.527C1022.21 508.265 1036.67 496.002 1079.68 495.77H1079.72C1081.16 495.77 1082.56 496.143 1083.76 496.843C1084.97 497.544 1085.92 498.543 1086.52 499.721L1092.26 511.136C1092.68 511.983 1093.35 512.713 1094.19 513.25C1102.09 518.306 1140.34 546.684 1117.88 608.987C1095.8 670.222 1067.52 789.105 1062.07 812.315C1061.73 813.824 1060.81 815.178 1059.49 816.149C1058.17 817.12 1056.52 817.649 1054.81 817.647C1054.52 817.647 1054.23 817.632 1053.94 817.602Z" fill="#2F2E41" />
    <path d="M1112.61 342.178C1103.94 347.585 1093.65 350.463 1083.11 350.425C1086.87 352.782 1091.15 354.374 1095.65 355.091C1081.64 357.809 1067.17 357.882 1053.13 355.307C1050.01 354.855 1047 353.919 1044.23 352.542C1042.85 351.845 1041.64 350.893 1040.7 349.748C1039.75 348.603 1039.08 347.29 1038.73 345.896C1037.8 341.075 1041.95 336.696 1046.27 333.744C1052.88 329.294 1060.49 326.228 1068.57 324.768C1076.65 323.308 1084.99 323.49 1092.98 325.302C1098.2 326.521 1103.42 328.583 1106.81 332.373C1110.2 336.163 1111.21 342.006 1107.98 345.909L1112.61 342.178Z" fill="#2F2E41" />
    <path d="M1087.27 318.296C1082.94 316.99 1078.47 315.621 1075.04 312.895C1071.6 310.17 1069.42 305.712 1070.96 301.822C1072.45 298.074 1076.99 295.884 1081.38 295.589C1085.77 295.295 1090.09 296.524 1094.28 297.738C1092.39 295.147 1090.43 290.122 1088.71 284.821C1084.8 272.728 1101.11 261.683 1115 262.595C1115.41 262.622 1115.81 262.66 1116.19 262.71C1130.2 264.559 1137.47 269.394 1147.26 278.65C1159.5 290.229 1165.9 305.854 1170.19 321.399C1174.48 336.943 1176.99 352.94 1183.02 368.004C1189.05 383.068 1199.22 397.549 1214.78 405.217C1223.29 409.278 1232.88 411.142 1242.49 410.606C1252.1 410.071 1261.37 407.156 1269.27 402.18C1270.35 408.795 1269.68 415.547 1267.34 421.888C1264.99 428.228 1261.02 433.979 1255.76 438.674C1250.49 443.369 1244.08 446.876 1237.04 448.911C1229.99 450.945 1222.52 451.449 1215.22 450.383C1195.14 447.45 1179.06 432.823 1170.47 416.148C1161.88 399.474 1159.53 380.81 1157.37 362.517C1155.22 344.225 1153.04 325.567 1144.72 308.777C1141.36 301.981 1136.41 295.065 1127.56 293.981C1125.25 293.64 1122.88 293.997 1120.81 294.998C1118.75 295.998 1117.11 297.586 1116.14 299.515C1112.25 308.033 1125.56 315.246 1122.15 323.364C1121.41 324.935 1120.19 326.282 1118.63 327.245C1117.07 328.208 1115.24 328.747 1113.36 328.797C1106.92 329.18 1101.64 325.844 1096.66 322.624C1086.47 316.037 1087.27 318.296 1087.27 318.296Z" fill="#2F2E41" />
</svg>