<svg width="43" height="43" viewBox="0 0 43 43" fill="none" xmlns="http://www.w3.org/2000/svg">
<path fill-rule="evenodd" clip-rule="evenodd" d="M1.3248 19.9561C0.59616 30.9319 8.98023 40.5083 19.9561 41.2369C30.9319 41.9656 40.5083 33.5815 41.2369 22.6057C41.9656 11.6298 33.5815 2.05343 22.6057 1.32479C11.6298 0.596152 2.05344 8.98023 1.3248 19.9561ZM13.473 10.5735L25.3928 17.211C25.6368 17.3107 25.8696 17.5767 25.9362 17.8317L30.9398 30.5243C31.0119 30.6961 31.0009 30.8624 30.9898 31.0287C30.9678 31.3613 30.7794 31.6829 30.5965 31.9213C30.2418 32.2318 29.6487 32.3595 29.1664 32.0769L17.2465 25.4394C17.0026 25.3397 16.7697 25.0737 16.7031 24.8187L11.6996 12.1261C11.4832 11.6106 11.605 11.0341 12.0429 10.7291C12.4031 10.3354 12.9906 10.2909 13.473 10.5735ZM18.7981 23.4545L27.2529 28.1916L23.675 19.1848L18.7981 23.4545Z" fill="white"/>
</svg>
