<svg width="45" height="45" viewBox="0 0 45 45" fill="none" xmlns="http://www.w3.org/2000/svg">
<g clip-path="url(#clip0)">
<path d="M28.2682 39.2318C22.7014 39.2318 17.5151 36.4746 14.395 31.8564C13.7625 30.9203 14.0087 29.6488 14.9446 29.0164C15.8808 28.3839 17.1522 28.6302 17.7846 29.5662C20.1431 33.057 24.0621 35.141 28.2682 35.141C35.2383 35.141 40.9091 29.4702 40.9091 22.5001C40.9091 15.5297 35.2383 9.85912 28.2682 9.85912C24.0495 9.85912 20.1241 11.9526 17.7678 15.459C17.1378 16.3966 15.8669 16.646 14.9293 16.0158C13.9916 15.3856 13.7424 14.1149 14.3724 13.1773C17.49 8.53795 22.6847 5.76825 28.2682 5.76825C37.4941 5.76816 45 13.2739 45 22.5C45 31.7259 37.4941 39.2318 28.2682 39.2318Z" fill="white"/>
<path d="M32.3814 23.6372C32.3895 23.6256 32.3958 23.6128 32.4034 23.6009C32.4319 23.5566 32.4596 23.5118 32.4847 23.4653C32.4894 23.4566 32.4932 23.4472 32.4978 23.4383C32.5238 23.3879 32.5487 23.3369 32.5705 23.2843C32.573 23.2783 32.5747 23.2719 32.5774 23.2659C32.5999 23.2104 32.6204 23.1541 32.638 23.0963C32.64 23.0896 32.6413 23.0825 32.6432 23.0758C32.66 23.0189 32.675 22.9615 32.6867 22.9027C32.69 22.8859 32.6916 22.8686 32.6946 22.8518C32.703 22.8031 32.7117 22.7544 32.7164 22.7045C32.7234 22.6368 32.7268 22.5688 32.7268 22.5003C32.7268 22.4317 32.7234 22.3635 32.7164 22.296C32.7117 22.2468 32.703 22.1987 32.6949 22.1506C32.6917 22.133 32.6902 22.1152 32.6867 22.0977C32.6751 22.0397 32.6602 21.983 32.6437 21.927C32.6415 21.9195 32.6403 21.9117 32.638 21.9042C32.6205 21.8474 32.6002 21.7919 32.5782 21.7371C32.5753 21.7302 32.5732 21.723 32.5704 21.7162C32.5489 21.6644 32.5244 21.6141 32.4988 21.5644C32.4938 21.5548 32.4898 21.5447 32.4846 21.5351C32.4602 21.4896 32.433 21.4458 32.4053 21.4024C32.3969 21.3894 32.39 21.3757 32.3814 21.363C32.3539 21.3219 32.3235 21.2829 32.2933 21.2441C32.2827 21.2303 32.2731 21.2157 32.2621 21.2021C32.2196 21.1504 32.1746 21.1007 32.1275 21.0535L25.9916 14.9175C25.193 14.1186 23.8978 14.1186 23.099 14.9175C22.3001 15.7161 22.3001 17.0113 23.099 17.8101L25.7436 20.4547H2.04548C0.91582 20.4546 0 21.3705 0 22.5001C0 23.6298 0.91582 24.5456 2.04548 24.5456H25.7433L23.0986 27.19C22.2998 27.9889 22.2998 29.2839 23.0986 30.0827C23.498 30.4821 24.0216 30.6818 24.545 30.6818C25.0684 30.6818 25.592 30.4821 25.9913 30.0827L32.1272 23.9468C32.1746 23.8995 32.2194 23.8499 32.2619 23.7982C32.2721 23.7856 32.281 23.7722 32.2909 23.7593C32.3222 23.7194 32.3532 23.6793 32.3814 23.6372Z" fill="white"/>
</g>
<defs>
<clipPath id="clip0">
<rect width="45" height="45" fill="white"/>
</clipPath>
</defs>
</svg>
