<svg width="482" height="509" viewBox="0 0 482 509" fill="none" xmlns="http://www.w3.org/2000/svg">
<path d="M214.557 236.049H124.323V344.385H214.557V236.049Z" fill="#CCCCCC"/>
<path d="M78.3862 507.329H32.4489L27.5271 465.052H83.3081L78.3862 507.329Z" fill="#E6E6E6"/>
<path d="M170.63 476.706L169.08 499.461C169.01 500.491 169.145 501.525 169.478 502.494C169.811 503.463 170.332 504.345 171.008 505.08C171.684 505.815 172.498 506.386 173.397 506.755C174.295 507.124 175.256 507.283 176.216 507.22L187.102 506.512C187.606 506.479 188.098 506.328 188.541 506.068C188.985 505.808 189.37 505.446 189.668 505.009C189.967 504.571 190.172 504.068 190.27 503.536C190.367 503.004 190.354 502.455 190.232 501.928L184.189 475.978L170.63 476.706Z" fill="#E6E6E6"/>
<path d="M261.681 490.162C274.492 493.38 283.644 497.954 289.656 504.144C291.797 506.332 294.598 507.621 297.55 507.777C301.32 507.99 304.403 507.537 306.72 506.425H306.721C307.314 506.144 307.827 505.698 308.206 505.133C308.584 504.567 308.815 503.903 308.874 503.21C308.944 502.505 308.838 501.794 308.565 501.148C308.293 500.503 307.864 499.947 307.325 499.54L276.941 476.327L264.035 481.871L261.024 485.103C260.698 485.453 260.452 485.88 260.306 486.349C260.159 486.819 260.116 487.318 260.18 487.808C260.243 488.298 260.412 488.766 260.672 489.175C260.933 489.583 261.278 489.921 261.681 490.162H261.681Z" fill="#E6E6E6"/>
<path d="M222.254 118.636L135.406 117.773C135.624 104.191 138.567 90.8533 145.001 78.9183C149.226 71.0798 149.135 62.5492 148.116 55.3624C146.545 44.2716 150.199 32.9241 158.319 25.864C164.524 20.4593 172.355 17.6771 180.338 18.0415L182.024 18.117C187.517 18.3621 192.865 20.085 197.576 23.1275C202.288 26.17 206.212 30.4347 208.988 35.5298C211.81 40.9691 212.948 47.2309 212.238 53.4103C211.687 59.2246 213.004 65.0981 216.085 71.0275C221.401 84.0477 222.552 100.709 222.254 118.636Z" fill="#2F2E41"/>
<path d="M280.361 477.538L263.316 482.312L180.314 288.157L185.502 477.538H168.457C150.243 388.439 117.359 285.61 132.143 253.145L220.333 247.575L280.361 477.538Z" fill="#F50057"/>
<path d="M179.573 86.0444C192.261 86.0444 202.547 75.0005 202.547 61.3771C202.547 47.7538 192.261 36.7098 179.573 36.7098C166.885 36.7098 156.599 47.7538 156.599 61.3771C156.599 75.0005 166.885 86.0444 179.573 86.0444Z" fill="#FFB9B9"/>
<path d="M199.582 106.733L161.787 104.346C165.491 95.2178 166.97 86.4277 165.492 78.0873H193.654C193.59 84.4911 196.558 95.5685 199.582 106.733Z" fill="#FFB9B9"/>
<path d="M223.297 254.736L140.296 261.103L148.818 103.153L163.269 98.7759L179.573 102.754L195.877 94.0012L206.252 97.9806L223.297 254.736Z" fill="#F50057"/>
<path d="M154.376 368.524L97.6828 354.599C114.541 294.576 144.911 157.26 135.108 108.325L164.751 94.0016L154.376 368.524Z" fill="#E6E6E6"/>
<path d="M126.956 195.058L105.464 180.735L123.793 123.097C125.837 117.15 129.752 112.156 134.862 108.98L141.036 105.142L137.331 163.229L126.956 195.058Z" fill="#E6E6E6"/>
<path d="M272.579 355.395C254.686 366.511 209.958 372.707 190.319 364.944C188.874 310.712 186.039 157.31 195.136 92.4102L227.744 106.733L224.779 149.702C209.19 186.459 254.458 314.486 272.579 355.395Z" fill="#E6E6E6"/>
<path d="M269.986 187.897L249.976 180.735L223.297 148.11L227.744 106.733L272.209 173.573L269.986 187.897Z" fill="#E6E6E6"/>
<path d="M207.277 218.868C207.604 220.411 208.488 221.751 209.734 222.595C210.98 223.439 212.488 223.718 213.925 223.371L230.911 219.241L228.456 207.6L211.47 211.729C210.032 212.079 208.783 213.028 207.997 214.367C207.21 215.705 206.951 217.325 207.277 218.868Z" fill="#FFB9B9"/>
<path d="M199.582 55.0114C186.822 49.3775 174.219 48.9698 161.787 54.2157L156.599 34.3228H204.029L199.582 55.0114Z" fill="#2F2E41"/>
<path d="M222.556 205.402L232.19 224.499C248.395 219.647 262.438 204.348 275.914 186.305L272.209 173.573L249.235 179.939L222.556 205.402Z" fill="#E6E6E6"/>
<path d="M215.516 166.014H212.551C212.551 120.997 203.919 89.6251 195.506 89.6251L194.765 86.4423C202.31 86.4423 207.119 99.4989 209.826 110.453C213.495 125.302 215.516 145.034 215.516 166.014Z" fill="#3F3D56"/>
<path d="M147.336 154.874H144.371C144.371 113.645 153.064 88.0337 165.863 88.0337L165.122 91.2165C156.269 91.2165 147.336 110.9 147.336 154.874Z" fill="#3F3D56"/>
<path d="M214.033 174.767C218.126 174.767 221.444 171.204 221.444 166.81C221.444 162.415 218.126 158.853 214.033 158.853C209.941 158.853 206.623 162.415 206.623 166.81C206.623 171.204 209.941 174.767 214.033 174.767Z" fill="#3F3D56"/>
<path d="M135.478 173.971H132.514C132.514 162.563 138.498 153.283 145.853 153.283V156.465C140.133 156.465 135.478 164.319 135.478 173.971Z" fill="#3F3D56"/>
<path d="M159.193 173.971H156.229C156.229 164.319 151.574 156.465 145.853 156.465V153.283C153.209 153.283 159.193 162.564 159.193 173.971Z" fill="#3F3D56"/>
<path d="M157.711 177.95C159.348 177.95 160.675 176.525 160.675 174.767C160.675 173.009 159.348 171.584 157.711 171.584C156.074 171.584 154.747 173.009 154.747 174.767C154.747 176.525 156.074 177.95 157.711 177.95Z" fill="#3F3D56"/>
<path d="M133.996 177.95C135.633 177.95 136.96 176.525 136.96 174.767C136.96 173.009 135.633 171.584 133.996 171.584C132.359 171.584 131.032 173.009 131.032 174.767C131.032 176.525 132.359 177.95 133.996 177.95Z" fill="#3F3D56"/>
<path d="M96.9416 145.499L115.437 149.045L157.711 213.585L135.252 207.911L96.9416 145.499Z" fill="#F50057"/>
<path d="M93.6611 144.708C93.3793 144.713 93.1038 144.799 92.8634 144.957C92.623 145.115 92.4266 145.339 92.2946 145.607C92.1627 145.874 92.1001 146.175 92.1135 146.477C92.1268 146.779 92.2155 147.072 92.3704 147.325L131.886 211.699C132.106 212.059 132.447 212.315 132.837 212.413L151.223 217.058C151.533 217.136 151.858 217.111 152.154 216.987C152.451 216.862 152.705 216.644 152.883 216.361C153.062 216.078 153.156 215.743 153.153 215.401C153.15 215.059 153.05 214.726 152.867 214.446L109.482 148.21C109.364 148.03 109.214 147.876 109.041 147.758C108.868 147.639 108.675 147.559 108.473 147.521L93.9575 144.737C93.8597 144.718 93.7605 144.709 93.6611 144.708Z" fill="#3F3D56"/>
<path d="M118.311 190.735L119.409 202.613L136.739 200.766C138.206 200.61 139.555 199.834 140.49 198.61C141.424 197.385 141.867 195.813 141.721 194.238C141.576 192.663 140.853 191.214 139.713 190.211C138.573 189.208 137.108 188.732 135.641 188.888L118.311 190.735Z" fill="#FFB9B9"/>
<path d="M103.241 189.36C103.267 193.41 104.781 197.285 107.456 200.141C110.131 202.997 113.748 204.602 117.52 204.606H120.37L122.444 186.043L105.267 179.404L103.241 189.36Z" fill="#E6E6E6"/>
<path d="M20.6524 449.412C32.481 466.42 57.0348 468.211 57.0348 468.211C57.0348 468.211 62.4107 442.424 50.5821 425.415C38.7535 408.407 14.1998 406.616 14.1998 406.616C14.1998 406.616 8.82387 432.403 20.6524 449.412Z" fill="#E6E6E6"/>
<path d="M80.9096 455.806C73.1043 467.029 56.902 468.211 56.902 468.211C56.902 468.211 53.3546 451.195 61.1599 439.971C68.9652 428.748 85.1675 427.566 85.1675 427.566C85.1675 427.566 88.7149 444.582 80.9096 455.806Z" fill="#E6E6E6"/>
<path d="M426.197 507.026H0V509H426.197V507.026Z" fill="#3F3D56"/>
</svg>
