<svg width="40" height="40" viewBox="0 0 40 40" fill="none" xmlns="http://www.w3.org/2000/svg">
<g clip-path="url(#clip0)">
<path d="M20.0592 11.5726C15.1596 11.5726 11.1807 15.5515 11.1807 20.4511C11.1807 25.3504 15.1596 29.3293 20.0592 29.3293C24.9585 29.3293 28.9374 25.3504 28.9374 20.4511C28.9374 15.5515 24.9585 11.5726 20.0592 11.5726ZM24.3872 21.2976H20.9058V24.7791C20.9058 25.2448 20.5246 25.6257 20.0592 25.6257C19.5935 25.6257 19.2127 25.2448 19.2127 24.7791V21.2976H15.7309C15.2655 21.2976 14.8843 20.9168 14.8843 20.4511C14.8843 19.9854 15.2655 19.6045 15.7309 19.6045H19.2127V16.1231C19.2127 15.6574 19.5935 15.2765 20.0592 15.2765C20.5246 15.2765 20.9058 15.6574 20.9058 16.1231V19.6045H24.3872C24.8529 19.6045 25.2338 19.9854 25.2338 20.4511C25.2338 20.9165 24.8529 21.2976 24.3872 21.2976Z" fill="white"/>
<path d="M29.1492 9.55139H34.3448L26.4084 1.22345V6.82129C26.4084 8.33466 27.6251 9.55139 29.1492 9.55139Z" fill="white"/>
<path d="M24.7153 6.82129V-0.078125H8.46137C6.35535 -0.078125 4.60944 1.65741 4.60944 3.76312V36.0806C4.60944 38.1866 6.35535 39.9219 8.46137 39.9219H31.6572C33.7629 39.9219 35.5088 38.1863 35.5088 36.0806V11.2445H29.1489C26.6941 11.2445 24.7153 9.26575 24.7153 6.82129ZM28.7681 34.3134H11.3502C10.8845 34.3134 10.5036 33.9325 10.5036 33.4668C10.5036 33.0011 10.8845 32.6202 11.3502 32.6202H28.7788C29.2444 32.6202 29.6253 33.0011 29.6253 33.4668C29.6253 33.9325 29.2444 34.3134 28.7681 34.3134ZM20.0593 31.0223C14.2286 31.0223 9.48767 26.2817 9.48767 20.4511C9.48767 14.6204 14.2286 9.87946 20.0593 9.87946C25.89 9.87946 30.6306 14.6204 30.6306 20.4511C30.6306 26.2817 25.89 31.0223 20.0593 31.0223Z" fill="white"/>
</g>
<defs>
<clipPath id="clip0">
<rect width="40" height="40" fill="white"/>
</clipPath>
</defs>
</svg>
