<svg width="42" height="42" viewBox="0 0 42 42" fill="none" xmlns="http://www.w3.org/2000/svg">
<rect x="7" y="15" width="31.1633" height="12.1943" fill="white"/>
<path d="M40.2142 16.6886L37.6344 14.1088V10.4614C37.6344 8.83276 36.999 7.3017 35.85 6.14865C34.6969 4.99832 33.1686 4.36422 31.5373 4.36422H27.8911L25.3168 1.7885C24.1597 0.636815 22.63 0 20.9986 0C19.3673 0 17.8376 0.63546 16.6873 1.78579L14.1075 4.36693H10.4614C7.10117 4.36693 4.36422 7.10252 4.36422 10.4641V14.1102L1.78444 16.6886C0.63275 17.8403 0 19.3714 0 21C0 22.6286 0.636815 24.161 1.78444 25.3127L4.36422 27.8884V31.5386C4.36422 33.1659 4.99968 34.6956 6.14865 35.8513C7.3017 37.0044 8.83005 37.6358 10.4614 37.6358H14.1088L16.6846 40.2101C17.8376 41.3659 19.366 41.9986 20.9986 41.9986C22.6313 41.9986 24.1597 41.3632 25.31 40.2129L27.8884 37.6331H31.5359C34.8948 37.6331 37.6331 34.8961 37.6331 31.5359V27.8912L40.2128 25.3127C41.3645 24.1597 41.9959 22.63 41.9959 21C41.9986 19.3714 41.3618 17.8403 40.2142 16.6886ZM14.8798 26.482H12.6306L10.6064 22.8278C10.0441 21.8143 9.42486 20.5922 8.96148 19.4798L8.91948 19.4947C8.97503 20.7439 9.00484 22.0812 9.00484 23.6258V26.478H7.03613V17.0016H9.54003L11.5074 20.4729C12.0697 21.4729 12.632 22.6517 13.0547 23.7207H13.0967C12.9558 22.4687 12.9138 21.1897 12.9138 19.7697V17.0003H14.8798V26.482ZM22.7777 26.482H16.732V17.0043H22.5785V18.7617H18.8809V20.7304H22.3698V22.4755H18.8809V24.7247H22.7763V26.482H22.7777ZM33.2648 26.482H30.9438L30.1417 22.4037C29.9588 21.4485 29.8043 20.5624 29.6918 19.4798H29.6634C29.4967 20.5488 29.3436 21.4485 29.1187 22.4037L28.219 26.482H25.8723L23.6231 17.0043H25.913L26.6284 20.9146C26.837 22.0392 27.0375 23.26 27.1893 24.218H27.2178C27.3722 23.1909 27.5971 22.0528 27.837 20.8875L28.6391 17.007H30.9181L31.6795 21C31.8895 22.1083 32.0467 23.1218 32.1849 24.1759H32.2134C32.3543 23.1232 32.567 22.0108 32.7608 20.8875L33.5331 17.007H35.7104L33.2648 26.482Z" fill="white"/>
</svg>
