<svg width="1377" height="747" viewBox="0 0 1377 747" fill="none" xmlns="http://www.w3.org/2000/svg">
<path d="M1113.03 705.399C1113.01 711.209 1115.28 716.795 1119.35 720.941C1123.42 725.087 1128.96 727.459 1134.77 727.541L1335.35 729.928C1338.26 729.962 1341.16 729.417 1343.86 728.322C1346.57 727.228 1349.02 725.607 1351.1 723.553C1353.17 721.5 1354.81 719.055 1355.93 716.361C1357.05 713.667 1357.62 710.777 1357.61 707.86L1355.73 107.683C1355.72 104.404 1354.98 101.17 1353.56 98.2151C1352.14 95.2606 1350.07 92.6612 1347.52 90.607C1344.96 88.5527 1341.98 87.0955 1338.79 86.342C1335.6 85.5885 1332.28 85.5576 1329.07 86.2517L1134.01 128.518C1129.11 129.555 1124.72 132.242 1121.56 136.129C1118.41 140.016 1116.68 144.868 1116.67 149.875L1113.03 705.399Z" fill="#3F3D56"/>
<path d="M1338.17 86.2037C1338.5 87.715 1338.67 89.2565 1338.67 90.8028L1346.94 695.896C1346.95 698.813 1346.38 701.702 1345.26 704.396C1344.14 707.091 1342.5 709.536 1340.43 711.589C1338.35 713.643 1335.9 715.264 1333.19 716.358C1330.49 717.452 1327.59 717.998 1324.68 717.963L1117.72 713.489C1116.32 713.469 1114.93 713.316 1113.56 713.031C1115.69 722.82 1124.35 727.418 1134.77 727.541L1335.35 729.928C1338.26 729.963 1341.16 729.417 1343.86 728.322C1346.57 727.228 1349.02 725.607 1351.1 723.554C1353.17 721.5 1354.81 719.055 1355.93 716.361C1357.05 713.667 1357.62 710.777 1357.61 707.86L1355.73 107.683C1355.72 102.631 1353.96 97.7386 1350.76 93.8274C1347.56 89.9161 1343.12 87.2242 1338.17 86.2037Z" fill="#F50057"/>
<path d="M1314.18 117.867L1294.16 122.408C1297.76 123.397 1300.91 125.573 1303.1 128.582C1305.3 131.59 1306.41 135.254 1306.26 138.976C1306.11 142.698 1304.71 146.259 1302.27 149.08C1299.84 151.9 1296.52 153.813 1292.86 154.508L1159.35 179.964C1156.32 180.545 1153.18 180.262 1150.3 179.147C1147.42 178.033 1144.92 176.131 1143.06 173.66C1141.21 171.189 1140.09 168.248 1139.83 165.171C1139.57 162.094 1140.18 159.005 1141.59 156.258L1131.28 158.597C1129.94 158.901 1128.74 159.654 1127.89 160.731C1127.04 161.808 1126.59 163.144 1126.6 164.516L1124.8 692.774C1124.81 693.574 1124.98 694.363 1125.3 695.097C1125.61 695.831 1126.08 696.493 1126.65 697.045C1127.23 697.598 1127.92 698.029 1128.66 698.313C1129.41 698.598 1130.21 698.73 1131.01 698.703L1322.03 695.213C1323.59 695.159 1325.06 694.5 1326.14 693.377C1327.22 692.254 1327.83 690.754 1327.82 689.195L1321.51 123.696C1321.51 122.797 1321.3 121.911 1320.91 121.102C1320.52 120.293 1319.95 119.582 1319.25 119.023C1318.54 118.463 1317.72 118.069 1316.85 117.869C1315.97 117.669 1315.06 117.668 1314.18 117.867Z" fill="white"/>
<path d="M1141.95 559.199L1300.71 553.688L1301 167.217L1138.31 202.522L1141.95 559.199Z" fill="#E6E6E6"/>
<path d="M1341.13 221.961C1342.19 221.931 1343.19 221.496 1343.93 220.747C1344.67 219.999 1345.09 218.993 1345.11 217.94L1344.93 183.94C1344.93 182.88 1344.5 181.866 1343.75 181.12C1342.99 180.374 1341.97 179.957 1340.91 179.961C1339.86 179.992 1338.86 180.426 1338.12 181.175C1337.38 181.924 1336.95 182.929 1336.93 183.983L1337.11 217.982C1337.12 219.043 1337.55 220.057 1338.3 220.803C1339.06 221.549 1340.07 221.965 1341.13 221.961Z" fill="#3F3D56"/>
<path d="M1341.44 279.236C1342.5 279.229 1343.51 278.802 1344.26 278.048C1345 277.294 1345.42 276.275 1345.42 275.215L1345.24 241.215C1345.23 240.155 1344.8 239.141 1344.05 238.396C1343.29 237.652 1342.28 237.236 1341.22 237.242C1340.16 237.247 1339.14 237.673 1338.4 238.426C1337.65 239.179 1337.23 240.197 1337.24 241.257L1337.42 275.257C1337.42 276.318 1337.85 277.332 1338.6 278.078C1339.36 278.824 1340.38 279.241 1341.44 279.236Z" fill="#3F3D56"/>
<path d="M1229.51 642.085C1240 631.486 1239.91 614.39 1229.31 603.902C1218.71 593.414 1201.62 593.505 1191.13 604.104C1180.64 614.704 1180.73 631.799 1191.33 642.288C1201.93 652.776 1219.03 652.685 1229.51 642.085Z" fill="#F50057"/>
<path d="M1253.42 533.513L1003.12 396.373L976.045 445.792L1226.35 582.932L1253.42 533.513Z" fill="#E6E6E6"/>
<path d="M1296.21 455.427L1045.91 318.286L1018.83 367.705L1269.13 504.845L1296.21 455.427Z" fill="#E6E6E6"/>
<path d="M1339.13 377.082L1088.83 239.942L1061.75 289.361L1312.06 426.501L1339.13 377.082Z" fill="#E6E6E6"/>
<path d="M1070.01 286.948L1309.64 418.241L1330.87 379.495L1091.24 248.202L1070.01 286.948Z" fill="white"/>
<path d="M1026.99 365.465L1266.62 496.758L1287.85 458.011L1048.22 326.718L1026.99 365.465Z" fill="white"/>
<path d="M984.305 443.379L1223.94 574.672L1245.16 535.926L1005.53 404.633L984.305 443.379Z" fill="white"/>
<path d="M1102.83 296.664C1112.13 296.664 1119.66 289.128 1119.66 279.832C1119.66 270.536 1112.13 263 1102.83 263C1093.54 263 1086 270.536 1086 279.832C1086 289.128 1093.54 296.664 1102.83 296.664Z" fill="#F50057"/>
<path d="M1285.93 372.135L1140.24 292.312L1138.49 295.521L1284.18 375.344L1285.93 372.135Z" fill="#F50057"/>
<path d="M1281.36 380.478L1135.67 300.656L1133.92 303.865L1279.6 383.687L1281.36 380.478Z" fill="#F50057"/>
<path d="M1061.83 375.664C1071.13 375.664 1078.66 368.128 1078.66 358.832C1078.66 349.536 1071.13 342 1061.83 342C1052.54 342 1045 349.536 1045 358.832C1045 368.128 1052.54 375.664 1061.83 375.664Z" fill="#CCCCCC"/>
<path d="M1242.66 451.121L1096.97 371.298L1095.21 374.507L1240.9 454.33L1242.66 451.121Z" fill="#CCCCCC"/>
<path d="M1238.09 459.464L1092.4 379.641L1090.64 382.85L1236.33 462.673L1238.09 459.464Z" fill="#CCCCCC"/>
<path d="M1199.87 529.207L1054.18 449.385L1052.43 452.594L1198.12 532.416L1199.87 529.207Z" fill="#CCCCCC"/>
<g clip-path="url(#clip0)">
<path d="M12.8024 745.724L20.1653 746.589C25.9811 750.095 32.8073 751.415 40.3675 751.146C41.4227 751.115 42.4515 750.808 43.3516 750.256C44.2518 749.705 44.9922 748.927 45.4995 748.001C45.9396 747.189 46.1863 746.286 46.2204 745.363C46.2545 744.439 46.0751 743.521 45.696 742.678C45.317 741.836 44.7486 741.092 44.0352 740.505C43.3217 739.918 42.4824 739.503 41.5825 739.294L35.9879 737.991L22.488 724.787L14.3438 710.048L2.51368 711.404L0.0509067 730.126C-0.261515 733.872 0.893801 737.593 3.27298 740.503C5.65216 743.414 9.06906 745.285 12.8024 745.724Z" fill="#2F2E41"/>
<path d="M127.477 736.252L134.693 737.95C140.071 742.096 146.703 744.186 154.244 744.78C155.296 744.869 156.353 744.681 157.31 744.236C158.268 743.79 159.092 743.102 159.701 742.24C160.231 741.483 160.579 740.614 160.718 739.701C160.857 738.788 160.784 737.854 160.503 736.974C160.223 736.094 159.743 735.29 159.101 734.626C158.459 733.961 157.672 733.454 156.802 733.143L151.392 731.211L139.485 716.555L133.073 700.984H121.165L116.585 719.303C115.848 722.989 116.572 726.818 118.604 729.98C120.636 733.142 123.817 735.391 127.477 736.252Z" fill="#2F2E41"/>
<path d="M133.392 702.02L119.927 704.091L98.6922 596.883L61.9202 534.215L17.3795 716.521L0.806244 719.629C2.66465 616.965 -6.406 487.717 14.272 472.065L104.389 482.424L143.751 588.078L133.392 702.02Z" fill="#2F2E41"/>
<path d="M68.1352 312.548C85.2974 312.548 99.2101 298.635 99.2101 281.473C99.2101 264.311 85.2974 250.398 68.1352 250.398C50.973 250.398 37.0603 264.311 37.0603 281.473C37.0603 298.635 50.973 312.548 68.1352 312.548Z" fill="#FFB8B8"/>
<path d="M24.63 329.121L61.92 335.336L71.243 302.189L44.311 293.903L24.63 329.121Z" fill="#FFB8B8"/>
<path d="M9.0929 476.209L108.533 485.531C100.561 457.811 93.2566 430.188 99.2101 402.665C106.77 378.093 99.4732 363.481 79.5293 351.909L66.0636 321.87L29.8096 317.727C20.2088 333.163 16.2816 351.46 18.702 369.477C23.8678 408.655 22.4728 445.01 9.0929 476.209Z" fill="#F50057"/>
<path d="M55.9158 246.206C66.5286 245.473 78.799 245.271 80.3356 248.066C91.3254 247.552 100.897 251.386 105.311 260.307C105.688 261.08 105.892 261.925 105.906 262.785C105.921 263.644 105.747 264.496 105.397 265.281C105.047 266.066 104.529 266.765 103.88 267.328C103.23 267.891 102.465 268.305 101.639 268.54C96.0634 270.148 87.5658 272.136 81.3655 271.501C68.4887 286.64 73.9066 314.252 86.4055 330.383L75.111 332.698L53.6788 302.852L60.4415 335.705L34.36 339.971L25.2633 298.22C23.3507 288.31 23.8294 278.086 26.6596 268.398C26.962 267.419 27.3267 266.461 27.7516 265.529C30.2639 260.066 34.2088 255.384 39.1676 251.982C44.1264 248.58 49.914 246.584 55.9158 246.206Z" fill="#2F2E41"/>
<path d="M73.3143 507.284L72.6272 531.332C72.5325 534.646 73.6974 537.874 75.8872 540.364C78.0771 542.855 81.1292 544.423 84.429 544.753C86.5424 544.964 88.6756 544.659 90.6449 543.863C92.6143 543.068 94.3609 541.806 95.7345 540.185C97.1081 538.565 98.0676 536.636 98.5303 534.563C98.9931 532.49 98.9453 530.336 98.3912 528.285L92.9951 508.319L77.4576 423.381L78.4935 373.662L45.3469 372.626L51.5619 428.561L73.3143 507.284Z" fill="#FFB8B8"/>
<path d="M43.2753 377.805C55.2844 373.231 68.556 373.231 80.5652 377.805L78.4935 336.372C78.4935 331.976 76.7474 327.761 73.6393 324.653C70.5312 321.544 66.3157 319.798 61.9202 319.798C57.5247 319.798 53.3093 321.544 50.2012 324.653C47.0931 327.761 45.347 331.976 45.347 336.372L43.2753 377.805Z" fill="#F50057"/>
</g>
<defs>
<clipPath id="clip0">
<rect width="856.946" height="596.18" fill="white" transform="translate(0 155)"/>
</clipPath>
</defs>
</svg>
