<svg width="35" height="35" viewBox="0 0 35 35" fill="none" xmlns="http://www.w3.org/2000/svg">
<path d="M22.6042 20.4167H21.4521L21.0438 20.0229C22.4729 18.3604 23.3333 16.2021 23.3333 13.8542C23.3333 8.61875 19.0896 4.375 13.8542 4.375C8.61875 4.375 4.375 8.61875 4.375 13.8542C4.375 19.0896 8.61875 23.3333 13.8542 23.3333C16.2021 23.3333 18.3604 22.4729 20.0229 21.0438L20.4167 21.4521V22.6042L27.7083 29.8813L29.8813 27.7083L22.6042 20.4167ZM13.8542 20.4167C10.2229 20.4167 7.29167 17.4854 7.29167 13.8542C7.29167 10.2229 10.2229 7.29167 13.8542 7.29167C17.4854 7.29167 20.4167 10.2229 20.4167 13.8542C20.4167 17.4854 17.4854 20.4167 13.8542 20.4167Z" fill="#666666"/>
</svg>
