<svg width="549" height="747" viewBox="0 0 549 747" fill="none" xmlns="http://www.w3.org/2000/svg">
<path d="M285.031 705.399C285.006 711.209 287.275 716.795 291.346 720.941C295.416 725.087 300.959 727.459 306.768 727.541L507.346 729.928C510.263 729.962 513.157 729.417 515.861 728.322C518.565 727.228 521.024 725.607 523.096 723.553C525.167 721.5 526.81 719.055 527.928 716.361C529.046 713.667 529.617 710.777 529.607 707.86L527.732 107.683C527.722 104.404 526.978 101.17 525.557 98.2151C524.135 95.2606 522.071 92.6612 519.516 90.607C516.96 88.5527 513.978 87.0955 510.787 86.342C507.596 85.5885 504.277 85.5576 501.073 86.2517L306.012 128.518C301.114 129.555 296.719 132.242 293.563 136.129C290.407 140.016 288.68 144.868 288.671 149.875L285.031 705.399Z" fill="#3F3D56"/>
<path d="M510.17 86.2037C510.498 87.715 510.666 89.2565 510.672 90.8028L518.937 695.896C518.946 698.813 518.376 701.702 517.258 704.396C516.14 707.091 514.497 709.536 512.426 711.589C510.354 713.643 507.895 715.264 505.191 716.358C502.487 717.452 499.593 717.998 496.676 717.963L289.723 713.489C288.325 713.469 286.931 713.316 285.561 713.031C287.692 722.82 296.353 727.418 306.769 727.541L507.346 729.928C510.263 729.963 513.158 729.417 515.861 728.322C518.565 727.228 521.024 725.607 523.096 723.554C525.167 721.5 526.81 719.055 527.928 716.361C529.046 713.667 529.617 710.777 529.607 707.86L527.732 107.683C527.715 102.631 525.96 97.7386 522.762 93.8274C519.564 89.9161 515.118 87.2242 510.17 86.2037Z" fill="#F50057"/>
<path d="M486.182 117.867L466.165 122.408C469.756 123.397 472.907 125.573 475.104 128.582C477.301 131.59 478.415 135.254 478.264 138.976C478.113 142.698 476.706 146.259 474.273 149.08C471.839 151.9 468.522 153.813 464.862 154.508L331.352 179.964C328.319 180.545 325.184 180.262 322.305 179.147C319.425 178.033 316.916 176.131 315.064 173.66C313.213 171.189 312.093 168.248 311.832 165.171C311.571 162.094 312.179 159.005 313.588 156.258L303.275 158.597C301.937 158.901 300.743 159.654 299.893 160.731C299.043 161.808 298.588 163.144 298.603 164.516L296.799 692.774C296.808 693.574 296.977 694.363 297.295 695.097C297.614 695.831 298.076 696.493 298.654 697.045C299.233 697.598 299.916 698.029 300.663 698.313C301.411 698.598 302.207 698.73 303.007 698.703L494.028 695.213C495.586 695.159 497.062 694.5 498.143 693.377C499.224 692.254 499.825 690.754 499.819 689.195L493.51 123.696C493.507 122.797 493.301 121.911 492.909 121.102C492.517 120.293 491.949 119.582 491.245 119.023C490.542 118.463 489.722 118.069 488.845 117.869C487.969 117.669 487.059 117.668 486.182 117.867Z" fill="white"/>
<path d="M313.949 559.199L472.711 553.688L473 167.217L310.309 202.522L313.949 559.199Z" fill="#E6E6E6"/>
<path d="M513.134 221.961C514.187 221.931 515.188 221.496 515.929 220.747C516.67 219.999 517.094 218.993 517.113 217.94L516.934 183.94C516.926 182.88 516.499 181.866 515.745 181.12C514.992 180.374 513.973 179.957 512.913 179.961C511.86 179.992 510.859 180.426 510.118 181.175C509.377 181.924 508.953 182.929 508.934 183.983L509.113 217.982C509.121 219.043 509.548 220.057 510.302 220.803C511.055 221.549 512.074 221.965 513.134 221.961Z" fill="#3F3D56"/>
<path d="M513.438 279.236C514.498 279.229 515.512 278.802 516.258 278.048C517.004 277.294 517.421 276.275 517.417 275.215L517.237 241.215C517.23 240.155 516.802 239.141 516.048 238.396C515.294 237.652 514.275 237.236 513.215 237.242C512.156 237.247 511.141 237.673 510.395 238.426C509.649 239.179 509.232 240.197 509.236 241.257L509.416 275.257C509.424 276.318 509.851 277.332 510.605 278.078C511.359 278.824 512.377 279.241 513.438 279.236Z" fill="#3F3D56"/>
<path d="M401.513 642.085C412.002 631.486 411.911 614.39 401.311 603.902C390.711 593.414 373.616 593.505 363.128 604.104C352.64 614.704 352.73 631.799 363.33 642.288C373.93 652.776 391.025 652.685 401.513 642.085Z" fill="#F50057"/>
<path d="M425.423 533.513L175.121 396.373L148.045 445.792L398.347 582.932L425.423 533.513Z" fill="#E6E6E6"/>
<path d="M468.207 455.427L217.905 318.286L190.829 367.705L441.131 504.845L468.207 455.427Z" fill="#E6E6E6"/>
<path d="M511.132 377.082L260.83 239.942L233.753 289.361L484.055 426.501L511.132 377.082Z" fill="#E6E6E6"/>
<path d="M242.013 286.948L481.643 418.241L502.872 379.495L263.242 248.202L242.013 286.948Z" fill="white"/>
<path d="M198.994 365.465L438.624 496.758L459.853 458.011L220.223 326.718L198.994 365.465Z" fill="white"/>
<path d="M156.305 443.379L395.935 574.672L417.164 535.926L177.534 404.633L156.305 443.379Z" fill="white"/>
<path d="M274.832 296.664C284.128 296.664 291.664 289.128 291.664 279.832C291.664 270.536 284.128 263 274.832 263C265.536 263 258 270.536 258 279.832C258 289.128 265.536 296.664 274.832 296.664Z" fill="#F50057"/>
<path d="M457.933 372.135L312.245 292.312L310.487 295.521L456.175 375.344L457.933 372.135Z" fill="#F50057"/>
<path d="M453.362 380.478L307.673 300.656L305.915 303.865L451.604 383.687L453.362 380.478Z" fill="#F50057"/>
<path d="M233.832 375.664C243.128 375.664 250.664 368.128 250.664 358.832C250.664 349.536 243.128 342 233.832 342C224.536 342 217 349.536 217 358.832C217 368.128 224.536 375.664 233.832 375.664Z" fill="#CCCCCC"/>
<path d="M414.657 451.121L268.969 371.298L267.211 374.507L412.899 454.33L414.657 451.121Z" fill="#CCCCCC"/>
<path d="M410.086 459.464L264.397 379.641L262.639 382.85L408.328 462.673L410.086 459.464Z" fill="#CCCCCC"/>
<path d="M187.832 452.664C197.128 452.664 204.664 445.128 204.664 435.832C204.664 426.536 197.128 419 187.832 419C178.536 419 171 426.536 171 435.832C171 445.128 178.536 452.664 187.832 452.664Z" fill="#CCCCCC"/>
<path d="M371.874 529.207L226.185 449.385L224.427 452.594L370.115 532.416L371.874 529.207Z" fill="#CCCCCC"/>
</svg>
