<svg width="546" height="665" viewBox="0 0 546 665" fill="none" xmlns="http://www.w3.org/2000/svg">
<path d="M546 158.029H542.252V57.9329C542.252 42.5681 535.991 27.8327 524.847 16.9682C513.703 6.10364 498.588 1.21171e-05 482.827 1.84478e-10H265.298C257.495 -1.91989e-05 249.767 1.49844 242.557 4.40982C235.348 7.3212 228.797 11.5885 223.279 16.968C217.76 22.3476 213.383 28.734 210.397 35.7628C207.41 42.7915 205.873 50.3249 205.873 57.9327V607.067C205.873 614.675 207.41 622.208 210.397 629.237C213.383 636.266 217.76 642.652 223.278 648.032C228.797 653.411 235.347 657.679 242.557 660.59C249.767 663.501 257.494 665 265.298 665H482.827C498.587 665 513.702 658.896 524.847 648.032C535.991 637.167 542.252 622.432 542.252 607.067V229.279H546V158.029Z" fill="#3F3D56"/>
<path d="M485.225 15.0721H456.83C458.136 18.1931 458.634 21.5793 458.282 24.9323C457.929 28.2854 456.735 31.5024 454.807 34.2999C452.878 37.0975 450.274 39.3898 447.222 40.9749C444.171 42.5599 440.767 43.3891 437.309 43.3893H312.69C309.232 43.3891 305.828 42.5599 302.777 40.9749C299.725 39.3898 297.121 37.0975 295.192 34.2999C293.264 31.5024 292.07 28.2853 291.718 24.9323C291.365 21.5792 291.863 18.193 293.169 15.072H266.648C254.879 15.072 243.591 19.6301 235.269 27.7436C226.946 35.8571 222.271 46.8613 222.27 58.3356V606.664C222.27 612.346 223.418 617.971 225.649 623.22C227.879 628.469 231.148 633.239 235.268 637.256C239.389 641.274 244.282 644.46 249.666 646.635C255.05 648.809 260.821 649.928 266.648 649.928H485.225C491.053 649.928 496.823 648.809 502.207 646.635C507.592 644.46 512.484 641.274 516.605 637.256C520.726 633.239 523.994 628.469 526.225 623.22C528.455 617.971 529.603 612.346 529.603 606.664V58.3356C529.603 52.6541 528.455 47.0283 526.225 41.7793C523.994 36.5303 520.726 31.761 516.605 27.7436C512.484 23.7262 507.592 20.5395 502.207 18.3653C496.823 16.1911 491.053 15.0721 485.225 15.0721Z" fill="white"/>
<path d="M375.558 117.185H248.46V328.859H375.558V117.185Z" fill="#E6E6E6"/>
<path d="M503.031 345.44H397.395V585.084H503.031V345.44Z" fill="#E6E6E6"/>
<path d="M503.413 117.185H397.498V175.451H503.413V117.185Z" fill="#E6E6E6"/>
<path d="M503.413 191.677H397.498V254.368H503.413V191.677Z" fill="#E6E6E6"/>
<path d="M503.413 270.594H397.498V328.859H503.413V270.594Z" fill="#E6E6E6"/>
<path d="M375.716 345.44H248.617V437.687H375.716V345.44Z" fill="#F50057"/>
<path d="M375.716 455.569H248.617V585.279H375.716V455.569Z" fill="#E6E6E6"/>
<path d="M225.065 353.883L242.756 362.641C249.071 365.767 255.165 365.233 257.498 358.714C258.054 357.163 258.259 355.513 258.099 353.878C257.94 352.242 257.42 350.659 256.575 349.238C255.73 347.817 254.58 346.59 253.204 345.642C251.827 344.694 250.257 344.047 248.6 343.746L231.787 340.686L159.776 317.394L116.156 287.24L100.165 312.076L150.568 338.591L225.065 353.883Z" fill="#FFB8B8"/>
<path d="M142.483 644.585L156.018 642.386L154.513 617.461H140.226L142.483 644.585Z" fill="#FFB8B8"/>
<path d="M11.1133 620.241L24.2126 624.224L34.3933 601.314L21.6388 595.037L11.1133 620.241Z" fill="#FFB8B8"/>
<path d="M73.3754 270.966C99.1474 260.28 131.247 267.05 162.595 271.75C162.887 266.059 166.423 259.133 162.719 255.163C158.219 250.339 158.633 245.271 161.341 240.174C168.266 227.139 158.345 213.27 148.328 201.738C146.07 199.144 143.217 197.107 139.999 195.79C136.782 194.474 133.292 193.916 129.812 194.161L111.256 195.453C106.741 195.768 102.431 197.419 98.9051 200.186C95.3788 202.953 92.8034 206.705 91.5236 210.938C87.0929 216.812 84.7214 222.671 86.2145 228.498C79.578 232.92 78.463 238.257 81.4452 244.274C83.9739 248.062 83.947 251.749 81.3301 255.335C77.8934 259.906 75.2611 265.003 73.5413 270.417L73.3754 270.966Z" fill="#2F2E41"/>
<path d="M18.4083 598.401L34.9515 604.999L113.908 503.833L138.722 622.593L155.266 619.66C165.878 517.274 174.531 412.841 163.913 363.448L102.628 360.882L74.8056 447.386L61.2702 506.032L18.4083 598.401Z" fill="#2F2E41"/>
<path d="M143.227 664.743C145.702 665.26 148.281 664.993 150.589 663.98L158.63 660.453C165.372 660.115 169.963 661.424 173.717 656.649C174.776 655.284 175.441 653.667 175.643 651.967C175.845 650.267 175.576 648.545 174.865 646.98C174.161 645.41 173.04 644.05 171.618 643.042C170.196 642.033 168.525 641.412 166.776 641.241L155.732 634.457L155.152 639.543C150.104 642.331 144.112 641.127 137.762 638.413L134.295 650.24C133.848 651.765 133.728 653.363 133.941 654.936C134.153 656.508 134.695 658.021 135.533 659.381C136.37 660.741 137.485 661.918 138.809 662.841C140.132 663.763 141.636 664.411 143.227 664.743Z" fill="#2F2E41"/>
<path d="M5.7538 640.482C7.92232 641.754 10.4511 642.318 12.9714 642.091L21.7512 641.3C28.2403 643.115 32.1462 645.807 37.2873 642.479C38.7436 641.523 39.911 640.204 40.6683 638.66C41.4256 637.116 41.7453 635.403 41.5942 633.697C41.4507 631.989 40.8435 630.349 39.8347 628.945C38.826 627.541 37.4522 626.424 35.8543 625.709L27.6688 615.796L25.4264 620.423C19.7238 621.462 14.457 618.426 9.35502 613.849L2.13706 623.938C1.20636 625.238 0.559762 626.712 0.237309 628.266C-0.0851438 629.821 -0.0765741 631.424 0.262537 632.975C0.601648 634.526 1.26405 635.993 2.20865 637.284C3.15325 638.576 4.35992 639.664 5.7538 640.482Z" fill="#2F2E41"/>
<path d="M125.187 256.784C140.138 256.784 152.258 244.969 152.258 230.393C152.258 215.818 140.138 204.002 125.187 204.002C110.236 204.002 98.1164 215.818 98.1164 230.393C98.1164 244.969 110.236 256.784 125.187 256.784Z" fill="#FFB8B8"/>
<path d="M92.1003 286.107L127.443 278.776L131.955 250.186L107.14 245.055L92.1003 286.107Z" fill="#FFB8B8"/>
<path d="M101.876 364.547H165.041L150.804 329.699C151.838 317.709 146.625 308.889 139.164 301.211L129.699 278.044C114.405 268.231 102.875 268.964 90.5968 281.709C76.0394 301.803 86.1159 332.008 101.876 364.547Z" fill="#F50057"/>
<path d="M130.451 438.589L132.247 457.853C132.888 464.728 136.592 469.476 143.496 467.938C145.139 467.571 146.681 466.864 148.017 465.863C149.354 464.862 150.452 463.591 151.238 462.137C152.024 460.684 152.478 459.082 152.57 457.442C152.662 455.801 152.389 454.161 151.77 452.633L145.49 437.123L127.443 365.281L130.451 313.232H100.372L104.132 368.946L130.451 438.589Z" fill="#FFB8B8"/>
<path d="M83.0208 265.392C85.9315 239.683 93.3892 217.79 106.33 200.501L108.268 200.437V199.97L114.559 200.231L132.052 199.658C131.642 200.073 131.251 200.491 130.855 200.907L143.61 201.437L155.642 225.628C144.075 222.364 131.902 221.69 120.03 223.657C118.553 223.874 117.161 224.466 115.993 225.373C114.825 226.281 113.922 227.472 113.375 228.827C113.166 229.251 113.059 229.717 113.063 230.188C113.067 230.659 113.181 231.123 113.397 231.544C118.454 240.142 118.202 249.585 113.063 259.499C111.941 261.663 114.095 264.268 114.77 266.656L83.0208 265.392Z" fill="#2F2E41"/>
<path d="M98.1164 314.698H132.707L130.282 292.7C130.123 288.895 128.51 285.286 125.761 282.581C123.011 279.876 119.324 278.271 115.423 278.081C113.356 277.98 111.289 278.28 109.341 278.963C107.394 279.647 105.605 280.7 104.077 282.061C102.55 283.423 101.315 285.067 100.443 286.897C99.5719 288.727 99.0815 290.708 99.0004 292.724L98.1164 314.698Z" fill="#F50057"/>
</svg>
