<svg width="857" height="592" viewBox="0 0 857 592" fill="none" xmlns="http://www.w3.org/2000/svg">
<g clip-path="url(#clip0)">
<path d="M12.8024 590.724L20.1653 591.589C25.9811 595.095 32.8073 596.415 40.3675 596.146C41.4227 596.115 42.4515 595.808 43.3516 595.256C44.2518 594.705 44.9922 593.927 45.4995 593.001C45.9396 592.189 46.1863 591.286 46.2204 590.363C46.2545 589.439 46.0751 588.521 45.696 587.678C45.317 586.836 44.7486 586.092 44.0352 585.505C43.3217 584.918 42.4824 584.503 41.5825 584.294L35.9879 582.991L22.488 569.787L14.3438 555.048L2.51368 556.404L0.0509067 575.126C-0.261515 578.872 0.893801 582.593 3.27298 585.503C5.65216 588.414 9.06906 590.285 12.8024 590.724Z" fill="#2F2E41"/>
<path d="M127.477 581.252L134.693 582.95C140.071 587.096 146.703 589.186 154.244 589.78C155.296 589.869 156.353 589.681 157.31 589.236C158.268 588.79 159.092 588.102 159.701 587.24C160.231 586.483 160.579 585.614 160.718 584.701C160.857 583.788 160.784 582.854 160.503 581.974C160.223 581.094 159.743 580.29 159.101 579.626C158.459 578.961 157.672 578.454 156.802 578.143L151.392 576.211L139.485 561.555L133.073 545.984H121.165L116.585 564.303C115.848 567.989 116.572 571.818 118.604 574.98C120.636 578.142 123.817 580.391 127.477 581.252Z" fill="#2F2E41"/>
<path d="M133.392 547.02L119.927 549.091L98.6922 441.883L61.9202 379.215L17.3795 561.521L0.806244 564.629C2.66465 461.965 -6.406 332.717 14.272 317.065L104.389 327.424L143.751 433.078L133.392 547.02Z" fill="#2F2E41"/>
<path d="M68.1352 157.548C85.2974 157.548 99.2101 143.635 99.2101 126.473C99.2101 109.311 85.2974 95.3978 68.1352 95.3978C50.973 95.3978 37.0603 109.311 37.0603 126.473C37.0603 143.635 50.973 157.548 68.1352 157.548Z" fill="#FFB8B8"/>
<path d="M24.63 174.121L61.92 180.336L71.243 147.189L44.311 138.903L24.63 174.121Z" fill="#FFB8B8"/>
<path d="M9.0929 321.209L108.533 330.531C100.561 302.811 93.2566 275.188 99.2101 247.665C106.77 223.093 99.4732 208.481 79.5293 196.909L66.0636 166.87L29.8096 162.727C20.2088 178.163 16.2816 196.46 18.702 214.477C23.8678 253.655 22.4728 290.01 9.0929 321.209Z" fill="#F50057"/>
<path d="M55.9158 91.2064C66.5286 90.4733 78.799 90.271 80.3356 93.0663C91.3254 92.5523 100.897 96.386 105.311 105.307C105.688 106.08 105.892 106.925 105.906 107.785C105.921 108.644 105.747 109.496 105.397 110.281C105.047 111.066 104.529 111.765 103.88 112.328C103.23 112.891 102.465 113.305 101.639 113.54C96.0634 115.148 87.5658 117.136 81.3655 116.501C68.4887 131.64 73.9066 159.252 86.4055 175.383L75.111 177.698L53.6788 147.852L60.4415 180.705L34.36 184.971L25.2633 143.22C23.3507 133.31 23.8294 123.086 26.6596 113.398C26.962 112.419 27.3267 111.461 27.7516 110.529C30.2639 105.066 34.2088 100.384 39.1676 96.982C44.1264 93.5798 49.914 91.584 55.9158 91.2064Z" fill="#2F2E41"/>
<path d="M73.3143 352.284L72.6272 376.332C72.5325 379.646 73.6974 382.874 75.8872 385.364C78.0771 387.855 81.1292 389.423 84.429 389.753C86.5424 389.964 88.6756 389.659 90.6449 388.863C92.6143 388.068 94.3609 386.806 95.7345 385.185C97.1081 383.565 98.0676 381.636 98.5303 379.563C98.9931 377.49 98.9453 375.336 98.3912 373.285L92.9951 353.319L77.4576 268.381L78.4935 218.662L45.3469 217.626L51.5619 273.561L73.3143 352.284Z" fill="#FFB8B8"/>
<path d="M43.2753 222.805C55.2844 218.231 68.556 218.231 80.5652 222.805L78.4935 181.372C78.4935 176.976 76.7474 172.761 73.6393 169.653C70.5312 166.544 66.3157 164.798 61.9202 164.798C57.5247 164.798 53.3093 166.544 50.2012 169.653C47.0931 172.761 45.347 176.976 45.347 181.372L43.2753 222.805Z" fill="#F50057"/>
</g>
<defs>
<clipPath id="clip0">
<rect width="856.946" height="596.18" fill="white"/>
</clipPath>
</defs>
</svg>
