<svg width="492" height="431" viewBox="0 0 492 431" fill="none" xmlns="http://www.w3.org/2000/svg">
<g clip-path="url(#clip0)">
<path d="M484.301 430.597H0V429.256H484.554L484.301 430.597Z" fill="#3F3D56"/>
<path d="M359.668 182.221H187.062C186.214 182.22 185.402 181.896 184.802 181.32C184.203 180.743 183.866 179.962 183.865 179.147V103.533C183.866 102.718 184.203 101.937 184.802 101.36C185.402 100.784 186.214 100.46 187.062 100.459H359.668C360.516 100.46 361.328 100.784 361.927 101.36C362.527 101.937 362.864 102.718 362.865 103.533V179.147C362.864 179.962 362.527 180.743 361.927 181.32C361.328 181.896 360.516 182.22 359.668 182.221ZM187.062 101.689C186.553 101.689 186.066 101.884 185.706 102.229C185.347 102.575 185.144 103.044 185.144 103.533V179.147C185.144 179.636 185.347 180.105 185.706 180.45C186.066 180.796 186.553 180.991 187.062 180.991H359.668C360.177 180.991 360.664 180.796 361.024 180.45C361.383 180.105 361.586 179.636 361.586 179.147V103.533C361.586 103.044 361.383 102.575 361.024 102.229C360.664 101.884 360.177 101.689 359.668 101.689H187.062Z" fill="#3F3D56"/>
<path d="M209.436 137.036C216.851 137.036 222.861 131.255 222.861 124.124C222.861 116.992 216.851 111.211 209.436 111.211C202.022 111.211 196.012 116.992 196.012 124.124C196.012 131.255 202.022 137.036 209.436 137.036Z" fill="#F50057"/>
<path d="M240.442 115.515C239.848 115.515 239.279 115.742 238.86 116.146C238.44 116.549 238.204 117.097 238.204 117.667C238.204 118.238 238.44 118.786 238.86 119.189C239.279 119.593 239.848 119.819 240.442 119.819H345.923C346.517 119.819 347.086 119.593 347.506 119.189C347.925 118.786 348.161 118.238 348.161 117.667C348.161 117.097 347.925 116.549 347.506 116.146C347.086 115.742 346.517 115.515 345.923 115.515H240.442Z" fill="#E6E6E6"/>
<path d="M240.442 128.428C239.848 128.428 239.279 128.654 238.86 129.058C238.44 129.462 238.204 130.009 238.204 130.58C238.204 131.15 238.44 131.698 238.86 132.101C239.279 132.505 239.848 132.732 240.442 132.732H285.831C286.424 132.732 286.993 132.505 287.413 132.101C287.833 131.698 288.068 131.15 288.068 130.58C288.068 130.009 287.833 129.462 287.413 129.058C286.993 128.654 286.424 128.428 285.831 128.428H240.442Z" fill="#E6E6E6"/>
<path d="M199.139 149.07C197.437 149.07 196.052 150.036 196.052 151.222C196.052 152.409 197.437 153.375 199.139 153.375H344.672C346.374 153.375 347.759 152.409 347.759 151.222C347.759 150.036 346.374 149.07 344.672 149.07H199.139Z" fill="#E6E6E6"/>
<path d="M199.139 161.983C197.437 161.983 196.052 162.948 196.052 164.135C196.052 165.321 197.437 166.287 199.139 166.287H344.672C346.374 166.287 347.759 165.321 347.759 164.135C347.759 162.948 346.374 161.983 344.672 161.983H199.139Z" fill="#E6E6E6"/>
<path d="M488.804 81.9978H316.197C315.349 81.9968 314.537 81.6726 313.938 81.0963C313.338 80.5199 313.001 79.7385 313 78.9234V3.30981C313.001 2.49474 313.338 1.71333 313.938 1.13698C314.537 0.560641 315.349 0.23643 316.197 0.235474H488.804C489.651 0.236432 490.463 0.560641 491.063 1.13698C491.662 1.71333 491.999 2.49474 492 3.30981V78.9234C491.999 79.7385 491.662 80.5199 491.063 81.0963C490.463 81.6726 489.651 81.9968 488.804 81.9978ZM316.197 1.46521C315.688 1.46574 315.201 1.66025 314.841 2.00607C314.482 2.35188 314.279 2.82075 314.279 3.30981V78.9234C314.279 79.4125 314.482 79.8814 314.841 80.2272C315.201 80.573 315.688 80.7675 316.197 80.768H488.804C489.312 80.7675 489.8 80.573 490.159 80.2272C490.519 79.8814 490.721 79.4125 490.721 78.9234V3.30981C490.721 2.82075 490.519 2.35188 490.159 2.00607C489.8 1.66025 489.312 1.46574 488.804 1.46521H316.197Z" fill="#3F3D56"/>
<path d="M338.572 36.8124C345.986 36.8124 351.997 31.0314 351.997 23.9002C351.997 16.769 345.986 10.988 338.572 10.988C331.157 10.988 325.147 16.769 325.147 23.9002C325.147 31.0314 331.157 36.8124 338.572 36.8124Z" fill="#F50057"/>
<path d="M369.577 15.2921C368.984 15.2921 368.414 15.5188 367.995 15.9224C367.575 16.326 367.339 16.8733 367.339 17.4441C367.339 18.0148 367.575 18.5622 367.995 18.9658C368.414 19.3694 368.984 19.5961 369.577 19.5961H475.059C475.652 19.5961 476.221 19.3694 476.641 18.9658C477.06 18.5622 477.296 18.0148 477.296 17.4441C477.296 16.8733 477.06 16.326 476.641 15.9224C476.221 15.5188 475.652 15.2921 475.059 15.2921H369.577Z" fill="#E6E6E6"/>
<path d="M369.577 28.2043C368.984 28.2043 368.414 28.431 367.995 28.8346C367.575 29.2382 367.339 29.7856 367.339 30.3563C367.339 30.9271 367.575 31.4744 367.995 31.878C368.414 32.2816 368.984 32.5084 369.577 32.5084H414.966C415.56 32.5084 416.129 32.2816 416.548 31.878C416.968 31.4744 417.204 30.9271 417.204 30.3563C417.204 29.7856 416.968 29.2382 416.548 28.8346C416.129 28.431 415.56 28.2043 414.966 28.2043H369.577Z" fill="#E6E6E6"/>
<path d="M328.274 48.8471C326.572 48.8471 325.187 49.8126 325.187 50.9991C325.187 52.1856 326.572 53.1512 328.274 53.1512H473.807C475.509 53.1512 476.894 52.1856 476.894 50.9991C476.894 49.8126 475.509 48.8471 473.807 48.8471H328.274Z" fill="#E6E6E6"/>
<path d="M328.274 61.7593C326.572 61.7593 325.187 62.7249 325.187 63.9114C325.187 65.0979 326.572 66.0634 328.274 66.0634H473.807C475.509 66.0634 476.894 65.0979 476.894 63.9114C476.894 62.7249 475.509 61.7593 473.807 61.7593H328.274Z" fill="#E6E6E6"/>
<path d="M488.804 282.444H316.197C315.349 282.443 314.537 282.119 313.938 281.543C313.338 280.967 313.001 280.185 313 279.37V203.756C313.001 202.941 313.338 202.16 313.938 201.584C314.537 201.007 315.349 200.683 316.197 200.682H488.804C489.651 200.683 490.463 201.007 491.063 201.584C491.662 202.16 491.999 202.941 492 203.756V279.37C491.999 280.185 491.662 280.967 491.063 281.543C490.463 282.119 489.651 282.443 488.804 282.444ZM316.197 201.912C315.688 201.912 315.201 202.107 314.841 202.453C314.482 202.799 314.279 203.267 314.279 203.756V279.37C314.279 279.859 314.482 280.328 314.841 280.674C315.201 281.02 315.688 281.214 316.197 281.215H488.804C489.312 281.214 489.8 281.02 490.159 280.674C490.519 280.328 490.721 279.859 490.721 279.37V203.756C490.721 203.267 490.519 202.799 490.159 202.453C489.8 202.107 489.312 201.912 488.804 201.912H316.197Z" fill="#3F3D56"/>
<path d="M338.572 237.259C345.986 237.259 351.997 231.478 351.997 224.347C351.997 217.216 345.986 211.435 338.572 211.435C331.157 211.435 325.147 217.216 325.147 224.347C325.147 231.478 331.157 237.259 338.572 237.259Z" fill="#F50057"/>
<path d="M369.577 215.739C368.984 215.739 368.414 215.965 367.995 216.369C367.575 216.773 367.339 217.32 367.339 217.891C367.339 218.461 367.575 219.009 367.995 219.412C368.414 219.816 368.984 220.043 369.577 220.043H475.059C475.652 220.043 476.221 219.816 476.641 219.412C477.06 219.009 477.296 218.461 477.296 217.891C477.296 217.32 477.06 216.773 476.641 216.369C476.221 215.965 475.652 215.739 475.059 215.739H369.577Z" fill="#E6E6E6"/>
<path d="M369.577 228.651C368.984 228.651 368.414 228.878 367.995 229.281C367.575 229.685 367.339 230.232 367.339 230.803C367.339 231.374 367.575 231.921 367.995 232.325C368.414 232.728 368.984 232.955 369.577 232.955H414.966C415.56 232.955 416.129 232.728 416.548 232.325C416.968 231.921 417.204 231.374 417.204 230.803C417.204 230.232 416.968 229.685 416.548 229.281C416.129 228.878 415.56 228.651 414.966 228.651H369.577Z" fill="#E6E6E6"/>
<path d="M328.274 249.294C326.572 249.294 325.187 250.259 325.187 251.446C325.187 252.632 326.572 253.598 328.274 253.598H473.807C475.509 253.598 476.894 252.632 476.894 251.446C476.894 250.259 475.509 249.294 473.807 249.294H328.274Z" fill="#E6E6E6"/>
<path d="M328.274 262.206C326.572 262.206 325.187 263.172 325.187 264.358C325.187 265.545 326.572 266.51 328.274 266.51H473.807C475.509 266.51 476.894 265.545 476.894 264.358C476.894 263.172 475.509 262.206 473.807 262.206H328.274Z" fill="#E6E6E6"/>
<path d="M74.3325 247.634L68.43 256.185C67.9369 257.032 67.6237 257.965 67.5087 258.929C67.3937 259.893 67.4791 260.869 67.7601 261.801C68.041 262.733 68.5118 263.602 69.1451 264.358C69.7784 265.113 70.5615 265.74 71.449 266.202C72.5545 266.777 73.7908 267.08 75.0477 267.083C76.3045 267.087 77.5427 266.791 78.6517 266.222C79.7607 265.653 80.706 264.829 81.4031 263.823C82.1002 262.817 82.5275 261.661 82.6467 260.458L81.6781 252.531L86.224 201.14L93.9781 167.337L77.8788 162.941L70.385 200.953L74.3325 247.634Z" fill="#9F616A"/>
<path d="M157.583 409.813L141.981 410.466L106.957 295.042L68.6736 411.357L53.7974 411.118L77.8394 274.746C70.7658 256.103 75.3566 239.074 86.3188 222.927L87.9672 212.853L130.45 212.127L134.442 250.343L157.583 409.813Z" fill="#2F2E41"/>
<path d="M146.739 430.339C148.937 431.304 151.05 423.257 152.632 425.24C158.752 432.911 170.668 430.264 170.256 429.043C170.674 428.914 171.06 428.704 171.391 428.428C171.722 428.151 171.991 427.812 172.182 427.432C172.373 427.052 172.482 426.639 172.502 426.218C172.522 425.796 172.453 425.375 172.299 424.98C172.115 424.507 171.814 424.085 171.422 423.749C171.03 423.412 170.56 423.173 170.05 423.05L164.536 421.724L155.877 407.079L146.441 405.93L146.203 406.305C144.378 409.133 143.202 412.302 142.752 415.602C142.303 418.902 142.59 422.256 143.595 425.44C144.38 427.859 145.448 429.773 146.739 430.339Z" fill="#2F2E41"/>
<path d="M56.8368 430.339C59.0345 431.304 61.1469 423.257 62.7292 425.24C68.849 432.911 80.7655 430.264 80.3536 429.043C80.7712 428.914 81.1573 428.704 81.4883 428.428C81.8194 428.151 82.0886 427.812 82.2796 427.432C82.4706 427.052 82.5795 426.639 82.5996 426.218C82.6197 425.796 82.5506 425.375 82.3966 424.98C82.2123 424.507 81.9113 424.085 81.5196 423.749C81.1278 423.412 80.6571 423.173 80.1478 423.05L74.6332 421.724L65.9746 407.079L56.5383 405.93L56.2999 406.305C54.4757 409.133 53.2995 412.302 52.8499 415.602C52.4003 418.902 52.6876 422.256 53.6926 425.44C54.4774 427.859 55.5455 429.773 56.8368 430.339Z" fill="#2F2E41"/>
<path d="M66.681 192.574L78.9552 152.275C79.5407 149.398 81.2906 146.862 83.82 145.226C86.3494 143.589 89.451 142.986 92.4426 143.549C93.9238 143.828 95.3335 144.385 96.5911 145.188C97.8486 145.991 98.9295 147.024 99.7719 148.228C100.614 149.433 101.202 150.785 101.501 152.208C101.8 153.631 101.805 155.097 101.515 156.522L91.4796 193.324C84.209 185.96 75.8546 186.341 66.681 192.574Z" fill="#F50057"/>
<path d="M175.178 155.05L151.932 159.982L152.932 142.199H171.921L184.158 106.528L183.998 97.2974C183.745 96.4457 183.691 95.5506 183.84 94.6764C183.989 93.8022 184.337 92.9706 184.86 92.2412C185.383 91.5118 186.067 90.9027 186.863 90.4576C187.66 90.0125 188.549 89.7425 189.466 89.6668C190.521 89.5799 191.58 89.7522 192.546 90.1675C193.513 90.5829 194.353 91.2276 194.989 92.0411C195.624 92.8547 196.035 93.8103 196.181 94.8182C196.327 95.8262 196.205 96.8534 195.825 97.8033L191.643 108.743L185.914 142.199C185.914 145.196 184.85 148.105 182.897 150.442C180.945 152.779 178.222 154.405 175.178 155.05Z" fill="#9F616A"/>
<path d="M111.704 129.942C122.744 129.942 131.693 121.335 131.693 110.716C131.693 100.098 122.744 91.4908 111.704 91.4908C100.665 91.4908 91.7152 100.098 91.7152 110.716C91.7152 121.335 100.665 129.942 111.704 129.942Z" fill="#9F616A"/>
<path d="M115.452 151.331L85.9683 151.811C90.6769 137.61 93.9111 124.333 93.4642 113.36H115.952C114.458 125.969 114.291 138.69 115.452 151.331Z" fill="#9F616A"/>
<path d="M134.692 215.496L86.3576 222.566C78.7221 201.253 78.4973 176.657 82.5714 158.455C82.0702 154.116 82.5618 149.724 84.0119 145.588C85.462 141.451 87.8353 137.669 90.9656 134.508L114.453 136.911C117.16 137.49 119.647 138.777 121.641 140.631C123.634 142.485 125.055 144.834 125.747 147.416C134.809 159.5 141.448 170.933 134.106 178.617L134.692 215.496Z" fill="#F50057"/>
<path d="M163.926 163.827L120.449 159.982C117.401 159.982 114.478 158.818 112.322 156.744C110.167 154.671 108.956 151.859 108.956 148.927C108.956 145.996 110.167 143.184 112.322 141.111C114.478 139.037 117.401 137.873 120.449 137.873L159.928 140.276C153.811 148.553 155.804 156.366 163.926 163.827Z" fill="#F50057"/>
<path d="M84.4689 146.729L69.702 146.364C72.0591 126.508 73.2867 104.133 85.3304 92.6309C86.8629 91.1674 88.2385 89.6518 89.6115 88.1335C92.3455 85.1103 98.1395 83.3748 104.063 84.0336L106.966 84.3564C116.495 85.4161 136.482 91.9871 135.903 97.7273C135.608 100.65 135.409 105.909 128.177 105.975C122.336 113.513 111.891 117.698 116.252 124.859C124.977 132.345 113.624 138.28 104.468 142.752C98.8548 145.494 91.7342 146.908 84.4689 146.729Z" fill="#2F2E41"/>
</g>
<defs>
<clipPath id="clip0">
<rect width="492" height="430.362" fill="white" transform="translate(0 0.235474)"/>
</clipPath>
</defs>
</svg>
